HIERARCHY
ROOT Hips
{
	OFFSET -22.846729 91.940529 -261.900696
	CHANNELS 6 Xposition Yposition Zposition Zrotation Yrotation Xrotation 
	JOINT LeftUpLeg
	{
		OFFSET 0.103462 1.857826 10.548503
		CHANNELS 3 Zrotation Yrotation Xrotation
		JOINT LeftLeg
		{
			OFFSET 43.500000 -0.000031 0.000000
			CHANNELS 3 Zrotation Yrotation Xrotation
			JOINT LeftFoot
			{
				OFFSET 42.372200 0.000008 -0.000003
				CHANNELS 3 Zrotation Yrotation Xrotation
				JOINT LeftToe
				{
					OFFSET 17.300003 0.000000 0.000002
					CHANNELS 3 Zrotation Yrotation Xrotation
					End Site
					{
						OFFSET 0.000000 0.000000 0.000000
					}
				}
			}
		}
	}
	JOINT RightUpLeg
	{
		OFFSET 0.103456 1.857828 -10.548503
		CHANNELS 3 Zrotation Yrotation Xrotation
		JOINT RightLeg
		{
			OFFSET 43.500042 -0.000019 0.000010
			CHANNELS 3 Zrotation Yrotation Xrotation
			JOINT RightFoot
			{
				OFFSET 42.372253 0.000000 0.000013
				CHANNELS 3 Zrotation Yrotation Xrotation
				JOINT RightToe
				{
					OFFSET 17.299976 -0.000010 0.000008
					CHANNELS 3 Zrotation Yrotation Xrotation
					End Site
					{
						OFFSET 0.000000 0.000000 0.000000
					}
				}
			}
		}
	}
	JOINT Spine
	{
		OFFSET 6.901965 -2.603735 -0.000001
		CHANNELS 3 Zrotation Yrotation Xrotation
		JOINT Spine1
		{
			OFFSET 12.588106 -0.000003 0.000000
			CHANNELS 3 Zrotation Yrotation Xrotation
			JOINT Spine2
			{
				OFFSET 12.343198 0.000019 -0.000002
				CHANNELS 3 Zrotation Yrotation Xrotation
				JOINT Neck
				{
					OFFSET 25.832905 -0.000013 0.000001
					CHANNELS 3 Zrotation Yrotation Xrotation
					JOINT Head
					{
						OFFSET 11.766598 0.000013 -0.000001
						CHANNELS 3 Zrotation Yrotation Xrotation
						End Site
						{
							OFFSET 0.000000 0.000000 0.000000
						}
					}
				}
				JOINT LeftShoulder
				{
					OFFSET 19.745911 -1.480387 6.000106
					CHANNELS 3 Zrotation Yrotation Xrotation
					JOINT LeftArm
					{
						OFFSET 11.284126 -0.000005 -0.000031
						CHANNELS 3 Zrotation Yrotation Xrotation
						JOINT LeftForeArm
						{
							OFFSET 33.000053 -0.000022 0.000026
							CHANNELS 3 Zrotation Yrotation Xrotation
							JOINT LeftHand
							{
								OFFSET 25.200005 0.000041 0.000016
								CHANNELS 3 Zrotation Yrotation Xrotation
								End Site
								{
									OFFSET 0.000000 0.000000 0.000000
								}
							}
						}
					}
				}
				JOINT RightShoulder
				{
					OFFSET 19.746105 -1.480383 -6.000075
					CHANNELS 3 Zrotation Yrotation Xrotation
					JOINT RightArm
					{
						OFFSET 11.284141 -0.000009 -0.000009
						CHANNELS 3 Zrotation Yrotation Xrotation
						JOINT RightForeArm
						{
							OFFSET 33.000092 0.000011 0.000021
							CHANNELS 3 Zrotation Yrotation Xrotation
							JOINT RightHand
							{
								OFFSET 25.199780 0.000133 0.000423
								CHANNELS 3 Zrotation Yrotation Xrotation
								End Site
								{
									OFFSET 0.000000 0.000000 0.000000
								}
							}
						}
					}
				}
			}
		}
	}
}
MOTION
Frames: 15
Frame Time: 0.033333
141.698303 12.680120 445.219696 168.982200 6.029513 -0.907718 -174.464574 -19.670503 158.111694 -33.135655 -0.543768 -2.629385 96.136115 1.300980 -4.129319 21.454557 0.003096 0.000003 -173.402684 21.102600 -161.929961 -30.152891 -1.499459 7.375010 97.995319 -4.419409 5.345760 21.454563 -0.003110 -0.000016 5.741172 -0.908257 -0.018797 1.470063 -1.816266 -0.048589 1.151790 -1.816388 -0.037615 3.307101 7.110678 1.110121 -56.495012 -4.543201 6.284043 -31.538091 -69.885505 -151.273937 -33.599927 -22.708058 -55.386561 -84.094860 -8.934950 2.669729 -4.405646 -25.430432 22.275699 -13.614822 79.111431 168.347989 -27.138621 19.588171 64.978363 -98.591841 0.964678 -2.799045 2.836697 12.240001 -22.618632 
141.379105 12.803540 445.138702 169.671803 5.980203 -0.831225 -175.173903 -19.827901 158.944157 -33.177121 -0.644046 -2.972006 98.600263 1.664953 -3.402016 21.454555 0.003095 0.000001 -174.381136 21.588894 -163.168875 -30.461220 -1.552990 8.215697 100.565001 -5.105480 4.549736 21.454570 -0.003115 -0.000017 5.647049 -0.848458 0.027221 1.281053 -1.697200 0.045579 0.962803 -1.696756 0.055831 2.252515 6.825052 1.298451 -55.344616 -4.571263 6.433136 -29.654793 -68.005407 -153.215814 -35.024626 -24.987803 -49.883532 -75.517051 -15.706722 2.773648 -2.457849 -24.308233 18.355333 -11.637304 77.062408 170.352295 -28.473329 21.936694 63.554856 -90.762668 5.035212 -2.732955 4.950580 11.183549 -22.937438 
140.951904 12.967890 445.079803 170.682999 5.953712 -0.747043 -176.392340 -20.075606 160.841461 -33.100367 -1.147164 -4.216311 100.455800 2.569517 -2.983651 21.454570 0.003099 -0.000000 -175.937176 22.272096 -164.582656 -30.723437 -1.470671 9.766680 102.389296 -6.203404 3.760959 21.454562 -0.003108 -0.000015 5.471686 -0.803017 0.082956 0.929488 -1.606673 0.159997 0.611256 -1.605540 0.169700 0.410667 6.745680 1.346076 -53.914867 -4.636533 6.522837 -29.202156 -66.427510 -153.750003 -37.588157 -26.783928 -46.740269 -67.432743 -19.860566 2.726964 3.988881 -19.902992 8.686233 -11.317987 74.822899 170.740700 -30.469409 23.916522 58.914329 -82.679495 11.812049 -2.849269 7.492266 9.712358 -19.748773 
140.441498 13.163700 444.978210 171.973699 5.989950 -0.684656 -177.826161 -20.428404 163.230156 -32.472359 -1.938950 -6.192330 102.012304 3.978438 -1.462026 21.454551 0.003091 0.000002 -177.758118 23.275698 -165.502177 -30.209606 -1.121049 10.808563 103.815897 -6.939146 2.713477 21.454558 -0.003107 -0.000019 5.200265 -0.774613 0.144313 0.385773 -1.549652 0.286608 0.067554 -1.547756 0.295963 -1.113649 6.380194 1.262313 -52.709550 -4.590611 6.316684 -29.477051 -65.610606 -153.541997 -40.904032 -27.794726 -44.813021 -61.134482 -22.127235 2.633567 7.623884 -18.668621 0.713412 -10.551694 73.398797 171.535092 -32.446308 25.803406 54.950337 -75.115122 16.631832 -2.858907 8.785427 8.401415 -17.713211 
139.859695 13.350750 444.861206 173.317512 6.020173 -0.590757 -179.147215 -20.905701 165.755427 -31.043725 -2.662300 -8.227878 102.985708 5.350386 -0.607562 21.454553 0.003096 -0.000003 -179.447784 24.285796 -165.810410 -28.668080 -1.031560 10.947776 104.603712 -7.042385 2.389079 21.454550 -0.003105 -0.000022 4.883387 -0.760128 0.212159 -0.248928 -1.519690 0.426561 -0.567137 -1.516949 0.435732 -1.658641 6.008092 1.210316 -52.200465 -4.457344 6.068286 -31.113772 -65.803306 -151.967789 -45.455899 -26.885076 -47.696109 -60.726379 -23.283276 2.699203 7.520624 -16.288411 5.701375 -11.267809 72.581907 170.874203 -34.846252 26.125994 53.836760 -72.347297 18.995316 -2.907828 9.274120 8.417106 -18.217636 
139.319504 13.530680 444.724915 174.654603 5.976532 -0.370544 179.493970 -21.692703 167.354606 -29.056581 -2.851144 -9.420772 103.490610 6.127709 -0.475608 21.454543 0.003094 0.000006 178.857806 25.239197 -166.259454 -26.816851 -0.759414 11.024783 104.938705 -7.093649 2.672252 21.454563 -0.003109 -0.000019 4.547808 -0.759046 0.279402 -0.921059 -1.515662 0.565501 -1.239258 -1.512086 0.574644 -1.778692 6.333731 1.093306 -51.656379 -4.777058 6.223338 -31.807143 -66.791416 -151.266110 -49.796041 -24.615573 -53.761604 -64.283411 -23.012687 2.822361 6.438025 -13.266778 12.591206 -14.652998 72.947418 167.579593 -38.718109 25.114790 56.478653 -74.128617 18.734227 -2.966189 8.995915 7.564424 -24.027958 
138.869095 13.634120 444.675598 175.682806 5.911151 -0.183900 178.449552 -22.665209 167.457087 -26.706612 -2.536530 -9.302042 103.836600 6.011162 -1.606128 21.454550 0.003089 -0.000002 177.241374 26.329800 -166.612547 -25.102181 -0.228949 11.263705 104.353905 -7.257780 2.341624 21.454558 -0.003110 -0.000021 4.276646 -0.763470 0.246251 -1.463035 -1.523601 0.502832 -1.781240 -1.520399 0.512024 -1.523409 7.041744 1.128621 -51.398799 -5.061155 6.593875 -32.837890 -68.088694 -150.201174 -53.432194 -22.667344 -59.889626 -67.958156 -21.377118 2.856864 5.839733 -11.345084 22.010218 -16.400613 73.752922 165.860106 -42.037960 23.792773 59.099428 -75.898175 17.757179 -2.973336 8.408349 8.976105 -30.814361 
138.615097 13.639830 444.554688 176.191997 6.225496 -0.045561 177.650980 -23.290605 166.781854 -24.348789 -2.194423 -8.404964 101.790009 5.374698 -2.636347 21.454553 0.003093 0.000004 176.331224 27.501010 -165.813074 -24.426884 -0.018665 10.287534 101.952396 -6.653520 1.589493 21.454563 -0.003106 -0.000015 4.130719 -0.861010 0.159290 -1.754108 -1.719415 0.332408 -2.072355 -1.717238 0.342787 -0.900798 7.805800 1.208367 -51.397112 -5.345549 7.013929 -32.363782 -68.311311 -150.665026 -54.960224 -20.695654 -64.628486 -71.234365 -19.298923 2.846104 5.802612 -9.961056 29.121915 -20.126891 73.834195 162.224929 -44.470252 22.746533 60.890720 -76.949943 16.871498 -2.956019 7.908967 8.617007 -32.817194 
138.681396 13.695320 444.495789 175.884994 6.451162 0.100834 177.639177 -23.630400 167.231513 -24.220553 -1.883914 -7.134893 99.610147 4.405867 -4.351070 21.454545 0.003090 0.000001 177.011073 28.207597 -166.168134 -24.161033 0.049409 8.858400 100.347200 -5.525047 5.241176 21.454562 -0.003112 -0.000020 4.209912 -0.937937 0.024497 -1.593757 -1.875472 0.062731 -1.912040 -1.874920 0.074058 0.624743 8.329170 1.353714 -52.437893 -5.537309 7.404442 -32.290037 -68.176489 -150.748053 -54.719897 -20.123298 -65.944910 -73.205004 -17.987716 2.836510 6.887805 -8.728437 31.676286 -21.566817 73.395519 160.847198 -45.704675 21.950679 61.679716 -77.440794 16.786769 -2.971509 7.687043 8.542904 -34.297522 
138.817200 13.920110 444.474701 174.928494 6.540238 0.127019 178.832371 -23.879902 168.119355 -22.922610 -1.684331 -5.491362 96.431418 2.807627 -8.816480 21.454562 0.003092 -0.000002 178.704892 28.300797 -166.137002 -22.113091 -0.446336 7.023927 96.353943 -3.527640 12.176549 21.454555 -0.003108 -0.000017 4.532986 -0.964208 -0.089906 -0.945574 -1.929241 -0.171170 -1.263867 -1.930103 -0.159513 2.654218 8.345268 1.541096 -54.263660 -5.382204 7.503769 -31.948247 -67.782210 -151.105955 -54.152407 -19.637690 -67.262487 -74.270446 -17.092063 2.818387 7.561950 -9.164806 32.952886 -17.258809 73.068510 165.077790 -44.813271 21.438842 62.652437 -77.543008 16.883350 -2.982934 7.478421 8.797103 -35.393893 
139.125900 14.414520 444.462585 174.060391 6.665871 0.046547 179.199247 -24.297809 167.953109 -21.533771 -1.515779 -3.873206 90.750995 0.587117 -13.716236 21.454560 0.003092 -0.000003 179.095866 28.837100 -166.612233 -21.421085 -0.187543 5.965351 92.995799 -1.714416 18.371117 21.454560 -0.003108 -0.000017 4.937795 -0.957429 -0.196546 -0.134013 -1.915283 -0.391327 -0.452297 -1.917474 -0.379750 4.334126 7.616043 1.697538 -55.914534 -4.962493 7.233941 -33.003925 -67.787408 -150.071769 -53.561520 -19.991028 -68.295704 -74.752179 -16.654938 2.808003 7.378548 -9.918149 33.810656 -13.050708 72.874908 169.188895 -43.600270 21.979747 63.533709 -77.527708 16.919280 -2.984829 7.471933 8.848694 -36.362872 
139.117203 15.067510 444.417114 174.039094 6.505686 0.092470 178.490902 -24.870896 168.893257 -21.308170 -1.674891 -3.182871 87.504484 -0.930091 -17.451217 21.454557 0.003093 0.000000 178.035738 28.821301 -167.709175 -22.011804 -0.237149 5.710294 90.536166 -0.762757 21.003096 21.454560 -0.003104 -0.000016 5.055959 -0.933855 -0.244088 0.103060 -1.867719 -0.488398 -0.215210 -1.870497 -0.477106 5.757363 7.629885 1.815457 -56.518620 -4.636784 7.046926 -32.685037 -68.168587 -150.356957 -53.371535 -20.178199 -68.861038 -75.331119 -16.248839 2.804058 7.100063 -10.330363 35.230642 -10.559094 73.237202 171.605416 -43.063014 22.096736 64.067680 -78.044549 16.642287 -2.988427 7.202811 8.705914 -37.829023 
138.690598 15.522850 444.166992 173.781910 5.931522 -0.047084 178.057322 -25.970401 171.390401 -21.872081 -2.074315 -2.846299 84.895850 -2.019475 -19.701527 21.454563 0.003092 -0.000002 177.645543 27.972203 -170.344494 -22.325097 -0.431247 5.890627 88.047627 -0.073923 23.095849 21.454570 -0.003109 -0.000016 5.095004 -0.852471 -0.193468 0.180060 -1.704830 -0.387696 -0.138184 -1.707003 -0.377390 6.040197 7.873185 1.632963 -55.729395 -4.610586 6.770260 -32.653809 -69.135612 -150.328147 -54.306240 -20.185072 -68.613089 -76.269048 -15.714331 2.806576 6.787552 -10.307538 37.124342 -7.251696 74.711027 174.788093 -42.825136 22.233557 63.598794 -79.032399 16.072757 -2.990618 7.110127 8.547406 -39.665470 
137.581100 15.889500 443.963501 173.807004 5.776272 -0.562294 177.882018 -26.516493 172.140397 -21.954520 -2.162080 -1.868005 81.064961 -3.532775 -20.288715 21.454545 0.003092 0.000001 176.838379 27.812395 -172.502165 -22.584915 -0.350122 5.331332 84.518735 1.083539 23.330128 21.454560 -0.003108 -0.000019 4.969895 -0.886833 -0.091340 -0.071666 -1.773840 -0.181500 -0.389928 -1.774766 -0.170781 6.614628 7.853130 1.515496 -56.286523 -4.317179 6.401891 -33.084968 -70.991115 -149.790037 -55.470951 -20.235573 -67.248458 -77.349147 -14.928196 2.797564 6.213945 -10.320590 38.843894 -4.280700 76.712607 177.647797 -43.562619 21.703606 63.009759 -80.716348 14.976532 -2.986859 6.886484 7.983541 -41.362273 
136.035507 16.331949 443.845612 174.279804 5.675599 -0.735453 176.959123 -26.742906 172.117188 -22.158160 -1.923531 -0.745883 76.748063 -5.251400 -20.656352 21.454545 0.003093 0.000001 175.848561 27.714707 -173.201863 -22.630280 -0.352599 4.446688 80.459690 2.452737 22.897320 21.454553 -0.003110 -0.000019 4.811854 -0.937859 -0.079186 -0.387933 -1.876087 -0.154531 -0.706214 -1.876850 -0.143195 4.626549 7.862214 1.233967 -55.000064 -4.202132 6.048001 -35.465822 -72.066521 -147.392122 -57.016551 -19.525404 -67.375308 -79.284891 -13.273419 2.764608 5.411802 -10.504559 40.684408 -5.339997 78.751009 176.564297 -45.149326 20.632576 63.972365 -83.196676 12.942293 -2.952257 6.616108 7.361022 -43.355377 
